<svg width="43px" height="27px" viewBox="0 0 43 27" version="1.1" xmlns="http://www.w3.org/2000/svg" xmlns:xlink="http://www.w3.org/1999/xlink">
    <style type="text/css">
        .st0{fill:#0079c1;}
    </style>
    <!-- Generator: Sketch 63.1 (92452) - https://sketch.com -->
    <title>SharafDG-logo-SquareWhite</title>
    <desc>Created with Sketch.</desc>
    <defs>
        <path class="st0" d="M11.6723846,12.9569283 C11.9599332,12.9682691 20.7301662,13.3634825 20.7301662,19.3804765 L20.730857,19.3952698 C20.7426966,19.6981793 20.8246838,24.5651044 13.9481722,25.8689574 C13.9481722,25.8689574 12.1298699,26.0195219 10.4127528,26.0311038 L-3.59727733e-14,26.031808 L-3.59727733e-14,17.1971602 L5.76907319,17.1971602 L5.76907319,22.9121004 L10.9744332,22.9119482 C11.1661312,22.9073721 15.0011681,22.7774493 15.0873137,19.7053795 C15.0873137,19.7053795 15.3039851,16.3256354 11.4825942,16.17869 L11.2218058,16.1737556 L6.78199401,16.1737556 L6.78199401,12.9566569 L11.6723846,12.9569283 Z M42.6492716,12.9566569 L42.6492716,16.1824156 L32.3861149,16.1824156 C32.3861149,16.1824156 27.6576059,15.9831069 27.6576059,19.5274393 C27.6576059,19.5274393 27.4166277,22.9396997 32.2644484,22.9396997 L42.6492716,22.9396997 L42.6492716,26.031808 L31.7323474,26.0317894 C31.1633593,26.0292718 21.9173027,25.8865617 21.9173027,19.2696988 L21.9170605,19.2559992 C21.9138402,18.9438048 21.9767042,13.3961641 30.4983221,12.9566569 L42.6492716,12.9566569 Z M42.7142857,18.8999074 L42.7142857,21.8715327 L36.7907758,21.8715327 L36.7907758,18.8999074 L42.7142857,18.8999074 Z M5.92350994,13.030982 L5.92350994,16.0026072 L5.46214255e-14,16.0026072 L5.46214255e-14,13.030982 L5.92350994,13.030982 Z M31.2296277,3.66505409 L31.5222764,4.06032089 C31.5307874,4.07178767 31.5392984,4.08190543 31.544536,4.09134866 C31.5465001,4.09404673 31.5465001,4.09674479 31.5484642,4.09741931 C31.6237541,4.16756905 31.6787484,4.1695926 31.6944611,4.1695926 C31.6944611,4.1695926 31.7134473,4.16756905 31.7324334,4.1614984 C31.947828,4.05694831 32.2574987,3.96453951 32.7092382,3.86943266 C33.1472291,3.78309452 33.5420101,3.741949 33.9106034,3.741949 C34.6543368,3.741949 35.2206479,3.84784812 35.6455449,4.06774057 C36.2000714,4.35958148 36.5042909,4.82542428 36.5511432,5.45695618 L36.5575349,5.6332939 L36.5575349,9.3795598 C36.5575349,9.49490216 36.5575349,9.60619742 36.561463,9.710073 C36.5653912,9.80248179 36.585032,9.89016896 36.6144933,9.97111097 C36.6605838,10.0963013 36.7418707,10.2089725 36.8576837,10.3056713 L36.9510065,10.3751465 L37.5369584,10.7663662 L35.510023,10.7663662 C35.2952831,10.7663662 35.1276812,10.6098783 35.014419,10.2996006 C34.975792,10.1916779 34.9378197,10.1255753 34.907049,10.0824062 C34.6464804,10.2517099 34.3610335,10.4230372 34.0389236,10.5970625 C33.5904576,10.8412375 33.1099115,10.9633251 32.6084152,10.9633251 C32.0113334,10.9633251 31.4915057,10.8122333 31.0613711,10.5100498 C30.5566014,10.1491834 30.2973422,9.66285683 30.2973422,9.06456049 C30.2973422,8.25176783 30.7811617,7.57118045 31.7324334,7.04438289 C32.6663557,6.52352107 33.5848992,6.22284175 34.4694503,6.13890287 L34.7630161,6.11894594 L34.7630161,5.53346542 C34.7630161,5.26838035 34.6687401,5.09368052 34.4664393,4.97968719 C34.2274757,4.84613288 33.9433381,4.77733217 33.6336674,4.77733217 C33.098127,4.77733217 32.6064511,4.92302778 32.1723884,5.21037191 C31.7971664,5.4570764 31.5036482,5.80603342 31.2979743,6.24820548 L31.2152244,6.44338849 L30.8210981,6.33141871 L31.1530284,4.1574513 L31.2296277,3.66505409 Z M41.0840954,0.996665916 C41.4435229,0.996665916 41.6870694,1.0081327 41.8455056,1.03511337 C41.9868106,1.05703516 42.1713072,1.12486157 42.4054364,1.241325 L42.5519214,1.31706136 L42.7142857,1.40272499 L42.6507803,1.57877385 L42.2841512,2.61618058 L42.0746488,3.21919853 L41.8913342,2.60538831 C41.8029504,2.29983223 41.6909976,2.08668495 41.5600586,1.97673872 C41.4271555,1.87151411 41.2431863,1.81620374 41.0107696,1.81620374 C40.7390712,1.81620374 40.5367705,1.92277738 40.3730967,2.15278759 C40.2249486,2.35976786 40.1378876,2.62274679 40.1160364,2.93832623 L40.1105641,3.10048359 L40.1105641,3.85998942 L41.7518842,3.85998942 L41.6104701,4.1655455 L41.3413905,4.74023375 L41.2850867,4.86097225 L40.1105641,4.86097225 L40.1105641,9.87263153 C40.1105641,10.0203507 40.1360972,10.1363676 40.185854,10.2240547 C40.2192434,10.2847612 40.2681,10.3363618 40.3327,10.3808483 L40.402558,10.4230372 L40.3089366,10.8263982 L38.1589186,10.8263982 L38.067916,10.4230372 C38.1680843,10.3697504 38.2348632,10.3090438 38.2728355,10.2294509 C38.3047519,10.1672267 38.3248837,10.0841347 38.3329549,9.9815976 L38.3369956,9.87263153 L38.3369956,4.86097225 L37.8963859,4.86097225 L37.829607,4.44479542 C37.9120986,4.41714024 38.0260155,4.34631598 38.1707031,4.23232266 C38.3788961,4.06774057 38.3965728,3.98949663 38.3965728,3.98612405 C38.3985369,2.97434896 38.6447022,2.20607441 39.1304858,1.70018686 C39.5874629,1.23342129 40.2467406,0.996665916 41.0840954,0.996665916 Z M6.68072175,5.99698069e-14 L6.73730379,0.258676413 L7.26068762,2.5906736 L6.88414764,2.76269015 C6.3627846,2.12349227 5.88655247,1.67585827 5.46555518,1.43151657 C4.99134384,1.14351916 4.41744034,1.00017203 3.76944131,1.00017203 C3.25144625,1.00017203 2.82842818,1.08552873 2.51520619,1.25298424 C2.13933982,1.460186 1.95746899,1.75274446 1.95746899,2.1489038 C1.95746899,2.65713454 2.78464446,2.98878767 3.47777439,3.17579052 C5.32073212,3.67946021 6.32438965,3.98635339 6.63559084,4.14273208 C7.83593831,4.73827425 8.44352159,5.64005801 8.44352159,6.82462658 C8.44352159,7.87627325 7.97133104,8.74873602 7.04244262,9.41725491 C6.17889299,10.0388602 5.14425005,10.3535723 3.96815203,10.3535723 C3.53031485,10.3535723 3.1046024,10.3275092 2.6997714,10.2760345 C2.31716907,10.2278178 1.92042123,10.1717821 1.4435155,10.1033664 C1.27053613,10.106494 1.12988936,10.1367272 1.01847125,10.1974021 L0.940339541,10.2486683 L0.670901277,10.4649921 L0.59747935,10.1320358 L-1.46564913e-14,7.37781618 L0.381928739,7.21687645 C0.943707519,7.99420885 1.4738273,8.56043001 1.96285775,8.90120524 C2.54282362,9.29997089 3.22046085,9.50261161 3.97960316,9.50261161 C4.69698254,9.50261161 5.32746807,9.29931931 5.85354628,8.89729577 C6.42071383,8.46986069 6.69621445,7.95315944 6.69621445,7.32047733 C6.69621445,6.64023004 6.19708007,6.13069615 5.18264501,5.76516096 C5.18264501,5.76516096 2.07332744,4.83470777 2.05446676,4.83014673 C0.845362553,4.34863068 0.231043311,3.61365085 0.231043311,2.64475456 C0.231043311,1.71755926 0.63317992,1.02493198 1.42398122,0.585768502 C2.04368923,0.247599589 2.85402481,0.0762346104 3.82871773,0.0762346104 C4.08064251,0.0762346104 4.35210156,0.0925240571 4.63703252,0.123148217 C4.89771404,0.154423954 5.69188332,0.246948011 5.78012436,0.247599589 C5.98328081,0.247599589 6.1653133,0.22049395 6.32277302,0.164614632 L6.43620653,0.117284016 L6.68072175,5.99698069e-14 Z M11.5655651,0.996665916 L11.5655651,4.56686687 C11.8611409,4.34704844 12.1560388,4.16016915 12.4421236,4.01564021 C13.0237843,3.71381001 13.6115462,3.56255879 14.1891393,3.56255879 C14.8792681,3.56255879 15.3816114,3.77229381 15.6887119,4.18638603 C15.9508433,4.54311483 16.0935259,5.03900304 16.1219969,5.69812915 L16.1273301,5.95300025 L16.1273301,9.58907951 C16.1273301,9.69596371 16.1503796,9.78940335 16.1971565,9.87880962 C16.2251774,9.93079523 16.26284,9.97531163 16.3107468,10.012558 L16.3903654,10.063 L16.2893545,10.4649921 L14.1504975,10.4649921 L14.0501644,10.0636722 C14.1376169,10.0179607 14.2054095,9.95678803 14.2481189,9.88149853 C14.2801509,9.82805644 14.2995989,9.75948922 14.3073209,9.67664766 L14.311166,9.58907951 L14.311166,5.65453118 C14.311166,5.40177359 14.2223577,5.18666075 14.035928,4.99373142 C13.8562776,4.80483545 13.6515439,4.71274027 13.411558,4.71274027 C12.934298,4.71274027 12.5017811,4.9130641 12.1316335,5.3096784 C11.8012292,5.65848052 11.6156363,6.02735493 11.5744007,6.41089755 L11.5655651,6.57615526 L11.5655651,9.77461434 C11.5737003,9.79478117 11.5879367,9.83578705 11.6340357,9.90838764 C11.6557293,9.94782499 11.6879685,9.98337836 11.7325609,10.0162428 L11.8089406,10.0636722 L11.7106413,10.4649921 L9.56093756,10.4649921 L9.46060449,10.0636722 C9.54737904,10.0179607 9.61110409,9.95947694 9.64906796,9.88620413 C9.67906619,9.83276203 9.69762442,9.76306043 9.70502864,9.6785173 L9.70872546,9.58907951 L9.70872546,2.38011038 C9.70872546,2.22751471 9.6917773,2.1421418 9.68567597,2.11794161 C9.63361124,1.9980162 9.56462548,1.95295006 9.50232135,1.93490209 L9.45721486,1.9256845 L9.43687708,1.5095756 L11.300496,1.05985531 L11.5655651,0.996665916 Z M18.3544288,3.48833071 L18.6531081,3.94842152 L18.6679076,3.9701179 L18.7166259,4.00508536 C18.7616233,4.0317372 18.7955526,4.03712141 18.8192654,4.03712141 C18.8192654,4.03712141 18.838101,4.03393077 18.8777904,4.0211682 C19.097091,3.92672514 19.409897,3.84057776 19.8606069,3.75379226 C20.3045897,3.67338804 20.7183009,3.63318593 21.0936682,3.63318593 C21.8571841,3.63318593 22.4404161,3.73337214 22.8749811,3.9414021 C23.4441424,4.21749914 23.7583733,4.65821122 23.8067926,5.25567402 L23.8133993,5.42249889 L23.8133993,8.96666586 C23.8133993,9.07259523 23.8147447,9.17788647 23.8181082,9.28317771 C23.8241625,9.36549631 23.8423254,9.44653866 23.8712516,9.52630475 C23.9191479,9.64576245 24.0027781,9.75174287 24.1217978,9.84228568 L24.2176927,9.90726761 L24.833887,10.2786585 L22.7370773,10.2786585 C22.5843741,10.2786585 22.3744913,10.2027212 22.2278425,9.83707345 C22.1901712,9.73497285 22.1518272,9.67243623 22.1181922,9.63159599 C21.8477663,9.79240444 21.555814,9.953851 21.2255176,10.1184882 C20.7674081,10.3494908 20.2736454,10.4649921 19.7556655,10.4649921 C19.1414892,10.4649921 18.6080372,10.3220513 18.1680906,10.0361696 C17.6487652,9.69477074 17.3837209,9.23531805 17.3837209,8.66865974 C17.3837209,7.89971462 17.8801744,7.25584273 18.8555912,6.75746419 C19.8170158,6.26470119 20.761004,5.98024254 21.6703918,5.90083189 L21.972216,5.88195157 L21.972216,5.32805584 C21.972216,5.07918563 21.8746743,4.9119959 21.6668097,4.80415215 C21.4185829,4.67780266 21.1286487,4.61271353 20.8091156,4.61271353 C20.2615368,4.61271353 19.7576836,4.75054933 19.3083191,5.02239217 C18.9239545,5.25746285 18.6230258,5.58682701 18.4127436,6.00449971 L18.3281935,6.18889149 L17.9205365,6.08296212 L18.2663049,4.02627323 C18.2663049,4.02627323 18.3544288,3.48960696 18.3544288,3.48833071 Z M26.7908795,3.48833071 L26.8623303,3.62161698 C26.9078565,3.70778185 26.9388396,3.77240549 26.9628673,3.82558537 C27.100078,4.10023588 27.1367519,4.18842023 27.149398,4.23890746 C27.190498,4.33920875 27.2322304,4.47989982 27.2859765,4.67915607 C27.3624858,4.59164488 27.4453181,4.50009471 27.5407965,4.40787137 C27.7791766,4.16418637 27.9777212,4.00195408 28.1535028,3.90501861 C28.3912505,3.78654192 28.6277336,3.69633808 28.8509382,3.6357534 C29.0289961,3.58567008 29.1746798,3.55669714 29.2915505,3.5471113 L29.3738567,3.54353007 L29.8006645,3.54353007 L29.762726,3.79192722 L29.5565937,5.06353214 L29.464909,5.64649131 L29.1873259,5.13421426 C29.1791059,5.11873151 29.136109,5.05680051 28.9767674,4.97265514 C28.8490413,4.90735833 28.7143597,4.87437334 28.575252,4.87437334 C28.4209689,4.87437334 28.2489812,4.93967015 28.0668766,5.0716101 C27.876552,5.20960852 27.7159458,5.37924559 27.5901165,5.5737897 C27.4783245,5.74288825 27.4138797,5.91758751 27.3948397,6.09719818 L27.3890427,6.23281629 L27.3890427,9.63296264 C27.3890427,9.75278565 27.4054827,9.8429895 27.4339365,9.90290101 C27.4496178,9.93413577 27.4814861,9.97915691 27.5492897,10.0296926 L27.6071889,10.0684991 L28.2432905,10.4649921 L25.7083687,10.4649921 L25.6217425,10.059748 C25.6963548,10.0220509 25.750101,9.97290996 25.7867748,9.90492049 C25.8142802,9.85695763 25.8314711,9.79574187 25.8383474,9.71900129 L25.8417856,9.63700162 L25.8417856,5.8376696 C25.8417856,5.6794763 25.8341979,5.52801462 25.8164933,5.36847499 C25.8038471,5.21970596 25.7646441,5.06689796 25.7039425,4.90533884 C25.625431,4.6876828 25.4942271,4.49386795 25.3033785,4.31415524 L25.1816563,4.20794196 L24.833887,3.9252135 L25.2613271,3.83097068 L26.6473457,3.51862304 L26.7908795,3.48833071 Z M34.7630161,7.11857973 C34.1829564,7.15095653 33.6212282,7.3229583 33.0922347,7.63121244 C32.441468,8.00894181 32.1101924,8.47503287 32.1101924,9.01599528 C32.1101924,9.24330742 32.194648,9.43756824 32.3674875,9.60822097 C32.5468739,9.78359532 32.7452464,9.86656088 32.9927211,9.86656088 C33.4267838,9.86656088 33.8222195,9.69590814 34.2045614,9.34583396 C34.5374374,9.03825434 34.719782,8.6923022 34.7561935,8.29092311 L34.7630161,8.13777451 L34.7630161,7.11857973 Z M21.972216,6.82765835 C21.3768754,6.85828853 20.7990251,7.02101136 20.2527917,7.31263619 C19.5740361,7.67381705 19.2450852,8.10263956 19.2450852,8.62271447 C19.2450852,8.83904011 19.3318637,9.02154493 19.5128203,9.1829915 C19.6904134,9.34635245 19.8982781,9.4273948 20.1491957,9.4273948 C20.596542,9.4273948 21.0035262,9.26594823 21.3984019,8.93475942 C21.741629,8.64263827 21.9280586,8.31572728 21.96525,7.93654752 L21.972216,7.79187086 L21.972216,6.82765835 Z" id="path-1"></path>
    </defs>
    <g id="Symbols" stroke="none" stroke-width="1" fill="none" fill-rule="evenodd">
        <g id="SharafDG-logo-SquareWhite">
            <g id="swatches/blue">
                <mask id="mask-2" fill="white">
                    <use xlink:href="#path-1"></use>
                </mask>
                <use id="Mask" fill="#FFFFFF" xlink:href="#path-1"></use>
            </g>
        </g>
    </g>
</svg>